# xmcd
#
# Track frame offsets:
#	150
#	12418
#	23949
#	35774
#	47949
#	59401
#	71803
#	82797
#	92322
#	103566
#	116341
#	127179
#	139475
#	149956
#	161416
#	181272
#	190921
#	201451
#	217977
#	227731
#	240503
#	252710
#	263061
#
# Disc length: 3703 seconds
#
# Revision: 1
# Processed by: cddbd v1.5.2PL0 Copyright (c) Steve Scherf et al.
# Submitted via: audiograbber 1.83.01
#
DISCID=5a0e7517
DTITLE=Various Artist - This is Real Country
DYEAR=1995
DGENRE=Country
TTITLE0=Glenn Campbell - By the time I get to Phoenix
TTITLE1=Connie Fransis - My Happiness
TTITLE2=Farron Young - I heard the Jukebox Playing
TTITLE3=Billy Jo Spears - What have they done to my song
TTITLE4=George Jones - Heartaches by the numbers
TTITLE5=Lynn Anderson - Stand by you man
TTITLE6=Patsy Cline - Stop the world
TTITLE7=Waylon Jennings - Sally was a good old girl
TTITLE8=Glenn Campbell  - Gentle on my mind
TTITLE9=Faron Young - Country Girl
TTITLE10=Johnny Paycheck - Heartbreak Tennessee
TTITLE11=Frankie Laine - High Noon
TTITLE12=Conway Twitty  - Born to sing the Blues
TTITLE13=Patsy Cline  - Walkin after midnight
TTITLE14=Glen Campbell Medley - Whitchita Lineman,Galveston,Country Boy
TTITLE15=Faron Young - Hello Walls
TTITLE16=Patsy Cline - Honky Tonk Merry Go Round
TTITLE17=Diana Trask - Behind Closed Doors
TTITLE18=Jimmy Dean - Freight Train Blues
TTITLE19=Cowboy Copas - Wreck on the Highway
TTITLE20=Dotti West - Crazy
TTITLE21=Hank Locklin - To Whom I May Concern
TTITLE22=Anne Murray - Both Sides Now
EXTD=
EXTT0=
EXTT1=
EXTT2=
EXTT3=
EXTT4=
EXTT5=
EXTT6=
EXTT7=
EXTT8=
EXTT9=
EXTT10=
EXTT11=
EXTT12=
EXTT13=
EXTT14=
EXTT15=
EXTT16=
EXTT17=
EXTT18=
EXTT19=
EXTT20=
EXTT21=
EXTT22=
PLAYORDER=
